<?xml version="1.0" ?><svg data-name="Layer 1" id="Layer_1" viewBox="0 0 512 512" xmlns="http://www.w3.org/2000/svg"><path d="M321.48,198.86H122.15a6,6,0,0,0,0,12.07H321.48a6,6,0,0,0,0-12.07Z"/><path d="M321.48,252.69H122.15a6,6,0,0,0,0,12.06H321.48a6,6,0,0,0,0-12.06Z"/><path d="M321.48,306.51H122.15a6,6,0,0,0,0,12.06H321.48a6,6,0,0,0,0-12.06Z"/><path d="M321.48,360.33H122.15a6,6,0,1,0,0,12.06H321.48a6,6,0,0,0,0-12.06Z"/><path d="M248.27,414.15H122.15a6,6,0,0,0,0,12.06H248.27a6,6,0,0,0,0-12.06Z"/><path d="M447.46,96.62c0-.13,0-.26,0-.39l0-.25c0-.11,0-.22-.06-.34a2.38,2.38,0,0,0-.05-.26c0-.1-.05-.21-.08-.31l-.09-.25a2.83,2.83,0,0,0-.11-.31,2.56,2.56,0,0,0-.11-.24,2.59,2.59,0,0,0-.14-.29l-.13-.23-.17-.28-.16-.23-.19-.24-.2-.24-.16-.18-69-71.18,0,0-.21-.2-.23-.21-.2-.15a2.69,2.69,0,0,0-.27-.2l-.3-.19c-.07,0-.13-.08-.19-.11a6,6,0,0,0-2.89-.74H138.93a6,6,0,0,0-6,6v64H70.57a6,6,0,0,0-6,6V486.39a6,6,0,0,0,6,6h302.5a6,6,0,0,0,6-6v-64h62.32a6,6,0,0,0,6-6V96.79C447.47,96.73,447.46,96.68,447.46,96.62Zm-69-56.13,48.73,50.26H378.45ZM76.6,480.36V101.67H298v65.15a6,6,0,0,0,6,6h63V416.36c0,.05,0,.1,0,.16v63.84ZM310.08,110.52l48.74,50.27H310.08ZM435.4,410.33H379.11V166.82c0-.06,0-.11,0-.17s0-.26,0-.39l0-.24a3.43,3.43,0,0,0-.06-.34,2,2,0,0,0-.05-.26c0-.11-.05-.21-.09-.32a2.41,2.41,0,0,0-.08-.25l-.11-.3a1.75,1.75,0,0,0-.11-.24c0-.1-.09-.2-.14-.3l-.13-.23-.17-.28-.16-.22a2.35,2.35,0,0,0-.19-.25,2.2,2.2,0,0,0-.2-.23,1.37,1.37,0,0,0-.16-.18l-69-71.18,0,0-.22-.2-.23-.2c-.06-.06-.13-.1-.19-.15l-.28-.21-.3-.18-.19-.12a6,6,0,0,0-2.88-.73H145v-58H366.38V96.79a6,6,0,0,0,6,6h63Z"/></svg>